<svg width="145" height="16" viewBox="0 0 145 16" fill="none" xmlns="http://www.w3.org/2000/svg">
<path d="M5.958 15C5.694 15 5.472 14.91 5.292 14.73C5.112 14.55 5.022 14.328 5.022 14.064V0.942H6.894V14.064C6.894 14.328 6.804 14.55 6.624 14.73C6.444 14.91 6.222 15 5.958 15ZM1.134 2.67C0.882 2.67 0.672 2.592 0.504 2.436C0.348 2.268 0.27 2.058 0.27 1.806C0.27 1.554 0.348 1.35 0.504 1.194C0.672 1.026 0.882 0.942 1.134 0.942H10.764C11.016 0.942 11.22 1.026 11.376 1.194C11.544 1.35 11.628 1.554 11.628 1.806C11.628 2.058 11.544 2.268 11.376 2.436C11.22 2.592 11.016 2.67 10.764 2.67H1.134ZM15.4394 15.072C14.4434 15.072 13.5554 14.862 12.7754 14.442C12.0074 14.01 11.4014 13.422 10.9574 12.678C10.5254 11.922 10.3094 11.058 10.3094 10.086C10.3094 9.102 10.5134 8.238 10.9214 7.494C11.3414 6.738 11.9174 6.15 12.6494 5.73C13.3814 5.298 14.2214 5.082 15.1694 5.082C16.1054 5.082 16.9094 5.292 17.5814 5.712C18.2534 6.12 18.7634 6.69 19.1114 7.422C19.4714 8.142 19.6514 8.976 19.6514 9.924C19.6514 10.152 19.5734 10.344 19.4174 10.5C19.2614 10.644 19.0634 10.716 18.8234 10.716H11.5694V9.276H18.7694L18.0314 9.78C18.0194 9.18 17.8994 8.646 17.6714 8.178C17.4434 7.698 17.1194 7.32 16.6994 7.044C16.2794 6.768 15.7694 6.63 15.1694 6.63C14.4854 6.63 13.8974 6.78 13.4054 7.08C12.9254 7.38 12.5594 7.794 12.3074 8.322C12.0554 8.838 11.9294 9.426 11.9294 10.086C11.9294 10.746 12.0794 11.334 12.3794 11.85C12.6794 12.366 13.0934 12.774 13.6214 13.074C14.1494 13.374 14.7554 13.524 15.4394 13.524C15.8114 13.524 16.1894 13.458 16.5734 13.326C16.9694 13.182 17.2874 13.02 17.5274 12.84C17.7074 12.708 17.8994 12.642 18.1034 12.642C18.3194 12.63 18.5054 12.69 18.6614 12.822C18.8654 13.002 18.9734 13.2 18.9854 13.416C18.9974 13.632 18.9014 13.818 18.6974 13.974C18.2894 14.298 17.7794 14.562 17.1674 14.766C16.5674 14.97 15.9914 15.072 15.4394 15.072ZM25.575 15C24.975 15 24.435 14.85 23.955 14.55C23.475 14.238 23.097 13.818 22.821 13.29C22.545 12.762 22.407 12.168 22.407 11.508V2.922C22.407 2.658 22.491 2.442 22.659 2.274C22.827 2.106 23.043 2.022 23.307 2.022C23.571 2.022 23.787 2.106 23.955 2.274C24.123 2.442 24.207 2.658 24.207 2.922V11.508C24.207 11.988 24.339 12.39 24.603 12.714C24.867 13.038 25.191 13.2 25.575 13.2H26.187C26.403 13.2 26.583 13.284 26.727 13.452C26.883 13.62 26.961 13.836 26.961 14.1C26.961 14.364 26.859 14.58 26.655 14.748C26.463 14.916 26.211 15 25.899 15H25.575ZM21.579 7.062C21.327 7.062 21.123 6.99 20.967 6.846C20.811 6.702 20.733 6.522 20.733 6.306C20.733 6.066 20.811 5.874 20.967 5.73C21.123 5.586 21.327 5.514 21.579 5.514H25.737C25.989 5.514 26.193 5.586 26.349 5.73C26.505 5.874 26.583 6.066 26.583 6.306C26.583 6.522 26.505 6.702 26.349 6.846C26.193 6.99 25.989 7.062 25.737 7.062H21.579ZM30.3157 15C30.0517 15 29.8297 14.916 29.6497 14.748C29.4817 14.568 29.3977 14.346 29.3977 14.082V6.072C29.3977 5.796 29.4817 5.574 29.6497 5.406C29.8297 5.238 30.0517 5.154 30.3157 5.154C30.5917 5.154 30.8137 5.238 30.9817 5.406C31.1497 5.574 31.2337 5.796 31.2337 6.072V14.082C31.2337 14.346 31.1497 14.568 30.9817 14.748C30.8137 14.916 30.5917 15 30.3157 15ZM30.3157 3.552C29.9917 3.552 29.7097 3.438 29.4697 3.21C29.2417 2.97 29.1277 2.688 29.1277 2.364C29.1277 2.04 29.2417 1.764 29.4697 1.536C29.7097 1.296 29.9917 1.176 30.3157 1.176C30.6397 1.176 30.9157 1.296 31.1437 1.536C31.3837 1.764 31.5037 2.04 31.5037 2.364C31.5037 2.688 31.3837 2.97 31.1437 3.21C30.9157 3.438 30.6397 3.552 30.3157 3.552ZM38.7533 15.072C37.8773 15.072 37.0913 14.856 36.3953 14.424C35.6993 13.98 35.1473 13.386 34.7393 12.642C34.3433 11.886 34.1453 11.034 34.1453 10.086C34.1453 9.138 34.3613 8.286 34.7933 7.53C35.2373 6.774 35.8313 6.18 36.5753 5.748C37.3313 5.304 38.1773 5.082 39.1133 5.082C40.0493 5.082 40.8893 5.304 41.6333 5.748C42.3773 6.18 42.9653 6.774 43.3973 7.53C43.8413 8.286 44.0633 9.138 44.0633 10.086H43.3613C43.3613 11.034 43.1573 11.886 42.7493 12.642C42.3533 13.386 41.8073 13.98 41.1113 14.424C40.4153 14.856 39.6293 15.072 38.7533 15.072ZM39.1133 13.452C39.7253 13.452 40.2713 13.308 40.7513 13.02C41.2313 12.72 41.6093 12.318 41.8853 11.814C42.1613 11.298 42.2993 10.722 42.2993 10.086C42.2993 9.438 42.1613 8.862 41.8853 8.358C41.6093 7.842 41.2313 7.44 40.7513 7.152C40.2713 6.852 39.7253 6.702 39.1133 6.702C38.5133 6.702 37.9673 6.852 37.4753 7.152C36.9953 7.44 36.6113 7.842 36.3233 8.358C36.0473 8.862 35.9093 9.438 35.9093 10.086C35.9093 10.722 36.0473 11.298 36.3233 11.814C36.6113 12.318 36.9953 12.72 37.4753 13.02C37.9673 13.308 38.5133 13.452 39.1133 13.452ZM43.1453 15.018C42.8813 15.018 42.6593 14.934 42.4793 14.766C42.3113 14.586 42.2273 14.364 42.2273 14.1V11.346L42.5693 9.438L44.0633 10.086V14.1C44.0633 14.364 43.9733 14.586 43.7933 14.766C43.6253 14.934 43.4093 15.018 43.1453 15.018ZM55.1118 15.018C54.8478 15.018 54.6258 14.934 54.4458 14.766C54.2778 14.586 54.1938 14.364 54.1938 14.1V9.672C54.1938 8.988 54.0678 8.43 53.8158 7.998C53.5638 7.566 53.2218 7.248 52.7898 7.044C52.3698 6.828 51.8838 6.72 51.3318 6.72C50.8278 6.72 50.3718 6.822 49.9638 7.026C49.5558 7.23 49.2318 7.506 48.9918 7.854C48.7518 8.19 48.6318 8.58 48.6318 9.024H47.4978C47.4978 8.268 47.6778 7.596 48.0378 7.008C48.4098 6.408 48.9138 5.934 49.5498 5.586C50.1858 5.238 50.8998 5.064 51.6918 5.064C52.5198 5.064 53.2578 5.244 53.9058 5.604C54.5658 5.952 55.0818 6.468 55.4538 7.152C55.8378 7.836 56.0298 8.676 56.0298 9.672V14.1C56.0298 14.364 55.9398 14.586 55.7598 14.766C55.5918 14.934 55.3758 15.018 55.1118 15.018ZM47.7138 15.018C47.4498 15.018 47.2278 14.934 47.0478 14.766C46.8798 14.586 46.7958 14.364 46.7958 14.1V6.072C46.7958 5.796 46.8798 5.574 47.0478 5.406C47.2278 5.238 47.4498 5.154 47.7138 5.154C47.9898 5.154 48.2118 5.238 48.3798 5.406C48.5478 5.574 48.6318 5.796 48.6318 6.072V14.1C48.6318 14.364 48.5478 14.586 48.3798 14.766C48.2118 14.934 47.9898 15.018 47.7138 15.018ZM63.1693 15.072C62.2933 15.072 61.5073 14.856 60.8113 14.424C60.1153 13.98 59.5633 13.386 59.1553 12.642C58.7593 11.886 58.5613 11.034 58.5613 10.086C58.5613 9.138 58.7773 8.286 59.2093 7.53C59.6533 6.774 60.2473 6.18 60.9913 5.748C61.7473 5.304 62.5933 5.082 63.5293 5.082C64.4653 5.082 65.3053 5.304 66.0493 5.748C66.7933 6.18 67.3813 6.774 67.8133 7.53C68.2573 8.286 68.4793 9.138 68.4793 10.086H67.7773C67.7773 11.034 67.5733 11.886 67.1653 12.642C66.7693 13.386 66.2233 13.98 65.5273 14.424C64.8313 14.856 64.0453 15.072 63.1693 15.072ZM63.5293 13.452C64.1413 13.452 64.6873 13.308 65.1673 13.02C65.6473 12.72 66.0253 12.318 66.3013 11.814C66.5773 11.298 66.7153 10.722 66.7153 10.086C66.7153 9.438 66.5773 8.862 66.3013 8.358C66.0253 7.842 65.6473 7.44 65.1673 7.152C64.6873 6.852 64.1413 6.702 63.5293 6.702C62.9293 6.702 62.3833 6.852 61.8913 7.152C61.4113 7.44 61.0273 7.842 60.7393 8.358C60.4633 8.862 60.3253 9.438 60.3253 10.086C60.3253 10.722 60.4633 11.298 60.7393 11.814C61.0273 12.318 61.4113 12.72 61.8913 13.02C62.3833 13.308 62.9293 13.452 63.5293 13.452ZM67.5613 15.018C67.2973 15.018 67.0753 14.934 66.8953 14.766C66.7273 14.586 66.6433 14.364 66.6433 14.1V11.346L66.9853 9.438L68.4793 10.086V14.1C68.4793 14.364 68.3893 14.586 68.2093 14.766C68.0413 14.934 67.8253 15.018 67.5613 15.018ZM81.4892 15C81.1052 15 80.8232 14.802 80.6432 14.406L75.3692 2.346C75.2012 1.938 75.1832 1.602 75.3152 1.338C75.4472 1.074 75.6992 0.942 76.0712 0.942C76.4912 0.942 76.7792 1.128 76.9352 1.5L81.5612 12.606H81.3632L86.0792 1.5C86.1752 1.284 86.2832 1.14 86.4032 1.068C86.5352 0.983999 86.7092 0.942 86.9252 0.942C87.2852 0.942 87.5312 1.074 87.6632 1.338C87.8072 1.59 87.8072 1.872 87.6632 2.184L82.3352 14.406C82.2512 14.598 82.1372 14.748 81.9932 14.856C81.8612 14.952 81.6932 15 81.4892 15ZM90.8547 15C90.5907 15 90.3687 14.916 90.1887 14.748C90.0207 14.568 89.9367 14.346 89.9367 14.082V6.072C89.9367 5.796 90.0207 5.574 90.1887 5.406C90.3687 5.238 90.5907 5.154 90.8547 5.154C91.1307 5.154 91.3527 5.238 91.5207 5.406C91.6887 5.574 91.7727 5.796 91.7727 6.072V14.082C91.7727 14.346 91.6887 14.568 91.5207 14.748C91.3527 14.916 91.1307 15 90.8547 15ZM90.8547 3.552C90.5307 3.552 90.2487 3.438 90.0087 3.21C89.7807 2.97 89.6667 2.688 89.6667 2.364C89.6667 2.04 89.7807 1.764 90.0087 1.536C90.2487 1.296 90.5307 1.176 90.8547 1.176C91.1787 1.176 91.4547 1.296 91.6827 1.536C91.9227 1.764 92.0427 2.04 92.0427 2.364C92.0427 2.688 91.9227 2.97 91.6827 3.21C91.4547 3.438 91.1787 3.552 90.8547 3.552ZM98.7704 15C98.1704 15 97.6304 14.85 97.1504 14.55C96.6704 14.238 96.2924 13.818 96.0164 13.29C95.7404 12.762 95.6024 12.168 95.6024 11.508V2.922C95.6024 2.658 95.6864 2.442 95.8544 2.274C96.0224 2.106 96.2384 2.022 96.5024 2.022C96.7664 2.022 96.9824 2.106 97.1504 2.274C97.3184 2.442 97.4024 2.658 97.4024 2.922V11.508C97.4024 11.988 97.5344 12.39 97.7984 12.714C98.0624 13.038 98.3864 13.2 98.7704 13.2H99.3824C99.5984 13.2 99.7784 13.284 99.9224 13.452C100.078 13.62 100.156 13.836 100.156 14.1C100.156 14.364 100.054 14.58 99.8504 14.748C99.6584 14.916 99.4064 15 99.0944 15H98.7704ZM94.7744 7.062C94.5224 7.062 94.3184 6.99 94.1624 6.846C94.0064 6.702 93.9284 6.522 93.9284 6.306C93.9284 6.066 94.0064 5.874 94.1624 5.73C94.3184 5.586 94.5224 5.514 94.7744 5.514H98.9324C99.1844 5.514 99.3884 5.586 99.5444 5.73C99.7004 5.874 99.7784 6.066 99.7784 6.306C99.7784 6.522 99.7004 6.702 99.5444 6.846C99.3884 6.99 99.1844 7.062 98.9324 7.062H94.7744ZM107.039 15.072C106.043 15.072 105.155 14.862 104.375 14.442C103.607 14.01 103.001 13.422 102.557 12.678C102.125 11.922 101.909 11.058 101.909 10.086C101.909 9.102 102.113 8.238 102.521 7.494C102.941 6.738 103.517 6.15 104.249 5.73C104.981 5.298 105.821 5.082 106.769 5.082C107.705 5.082 108.509 5.292 109.181 5.712C109.853 6.12 110.363 6.69 110.711 7.422C111.071 8.142 111.251 8.976 111.251 9.924C111.251 10.152 111.173 10.344 111.017 10.5C110.861 10.644 110.663 10.716 110.423 10.716H103.169V9.276H110.369L109.631 9.78C109.619 9.18 109.499 8.646 109.271 8.178C109.043 7.698 108.719 7.32 108.299 7.044C107.879 6.768 107.369 6.63 106.769 6.63C106.085 6.63 105.497 6.78 105.005 7.08C104.525 7.38 104.159 7.794 103.907 8.322C103.655 8.838 103.529 9.426 103.529 10.086C103.529 10.746 103.679 11.334 103.979 11.85C104.279 12.366 104.693 12.774 105.221 13.074C105.749 13.374 106.355 13.524 107.039 13.524C107.411 13.524 107.789 13.458 108.173 13.326C108.569 13.182 108.887 13.02 109.127 12.84C109.307 12.708 109.499 12.642 109.703 12.642C109.919 12.63 110.105 12.69 110.261 12.822C110.465 13.002 110.573 13.2 110.585 13.416C110.597 13.632 110.501 13.818 110.297 13.974C109.889 14.298 109.379 14.562 108.767 14.766C108.167 14.97 107.591 15.072 107.039 15.072ZM121.909 15.018C121.645 15.018 121.423 14.934 121.243 14.766C121.075 14.586 120.991 14.364 120.991 14.1V9.672C120.991 8.988 120.865 8.43 120.613 7.998C120.361 7.566 120.019 7.248 119.587 7.044C119.167 6.828 118.681 6.72 118.129 6.72C117.625 6.72 117.169 6.822 116.761 7.026C116.353 7.23 116.029 7.506 115.789 7.854C115.549 8.19 115.429 8.58 115.429 9.024H114.295C114.295 8.268 114.475 7.596 114.835 7.008C115.207 6.408 115.711 5.934 116.347 5.586C116.983 5.238 117.697 5.064 118.489 5.064C119.317 5.064 120.055 5.244 120.703 5.604C121.363 5.952 121.879 6.468 122.251 7.152C122.635 7.836 122.827 8.676 122.827 9.672V14.1C122.827 14.364 122.737 14.586 122.557 14.766C122.389 14.934 122.173 15.018 121.909 15.018ZM114.511 15.018C114.247 15.018 114.025 14.934 113.845 14.766C113.677 14.586 113.593 14.364 113.593 14.1V6.072C113.593 5.796 113.677 5.574 113.845 5.406C114.025 5.238 114.247 5.154 114.511 5.154C114.787 5.154 115.009 5.238 115.177 5.406C115.345 5.574 115.429 5.796 115.429 6.072V14.1C115.429 14.364 115.345 14.586 115.177 14.766C115.009 14.934 114.787 15.018 114.511 15.018ZM127.59 11.4L126.474 10.176L132 5.244C132.18 5.076 132.378 4.998 132.594 5.01C132.822 5.022 133.014 5.118 133.17 5.298C133.338 5.478 133.416 5.676 133.404 5.892C133.392 6.108 133.296 6.3 133.116 6.468L127.59 11.4ZM126.744 15C126.48 15 126.264 14.922 126.096 14.766C125.94 14.598 125.862 14.382 125.862 14.118V1.824C125.862 1.56 125.94 1.35 126.096 1.194C126.264 1.026 126.48 0.942 126.744 0.942C127.008 0.942 127.218 1.026 127.374 1.194C127.542 1.35 127.626 1.56 127.626 1.824V14.118C127.626 14.382 127.542 14.598 127.374 14.766C127.218 14.922 127.008 15 126.744 15ZM133.17 14.91C132.978 15.066 132.762 15.132 132.522 15.108C132.294 15.096 132.102 14.994 131.946 14.802L128.292 10.284L129.552 9.096L133.296 13.704C133.452 13.896 133.518 14.106 133.494 14.334C133.482 14.55 133.374 14.742 133.17 14.91ZM139.678 15.072C138.706 15.072 137.848 14.862 137.104 14.442C136.36 14.01 135.772 13.422 135.34 12.678C134.92 11.922 134.71 11.058 134.71 10.086C134.71 9.102 134.92 8.238 135.34 7.494C135.772 6.738 136.36 6.15 137.104 5.73C137.848 5.298 138.706 5.082 139.678 5.082C140.638 5.082 141.49 5.298 142.234 5.73C142.978 6.15 143.56 6.738 143.98 7.494C144.412 8.238 144.628 9.102 144.628 10.086C144.628 11.058 144.418 11.922 143.998 12.678C143.578 13.422 142.996 14.01 142.252 14.442C141.508 14.862 140.65 15.072 139.678 15.072ZM139.678 13.452C140.302 13.452 140.854 13.308 141.334 13.02C141.814 12.732 142.186 12.336 142.45 11.832C142.726 11.328 142.864 10.746 142.864 10.086C142.864 9.426 142.726 8.844 142.45 8.34C142.186 7.824 141.814 7.422 141.334 7.134C140.854 6.846 140.302 6.702 139.678 6.702C139.054 6.702 138.502 6.846 138.022 7.134C137.542 7.422 137.164 7.824 136.888 8.34C136.612 8.844 136.474 9.426 136.474 10.086C136.474 10.746 136.612 11.328 136.888 11.832C137.164 12.336 137.542 12.732 138.022 13.02C138.502 13.308 139.054 13.452 139.678 13.452Z" fill="#25282B"/>
</svg>
