<svg width="38" height="38" viewBox="0 0 38 38" fill="none" xmlns="http://www.w3.org/2000/svg">
<rect width="38" height="38" rx="3" fill="#FFF7F1"/>
<path fill-rule="evenodd" clip-rule="evenodd" d="M6.08125 12.3325C6.24508 11.6699 6.64781 11.0782 7.2235 10.6545C7.79918 10.2307 8.51369 9.99995 9.25 10H28.75C29.4863 9.99995 30.2008 10.2307 30.7765 10.6545C31.3522 11.0782 31.7549 11.6699 31.9187 12.3325L19 19.621L6.08125 12.3325ZM6 14.0455V24.7015L15.4299 19.3645L6 14.0455ZM16.9866 20.245L6.31037 26.2855C6.57416 26.7989 6.99048 27.2326 7.5109 27.5362C8.03131 27.8397 8.63441 28.0005 9.25 28H28.75C29.3655 28.0001 29.9684 27.8389 30.4885 27.5351C31.0086 27.2313 31.4246 26.7975 31.688 26.284L21.0117 20.2435L19 21.379L16.9866 20.2435V20.245ZM22.5701 19.366L32 24.7015V14.0455L22.5701 19.3645V19.366Z" fill="#3C801C"/>
</svg>
